<svg xmlns="http://www.w3.org/2000/svg" viewBox="0 0 200 40" fill="#ffffff">
  <!-- Accor main logo - simplified wordmark -->
  <g transform="translate(10, 5)">
    <!-- A -->
    <path d="M0 30h5l2-6h10l2 6h5L14 0H10L0 30zm9.5-11l3-9h.5l3 9h-6.5z"/>
    <!-- C -->
    <path d="M30 15c0-8.3 6.7-15 15-15 4.1 0 7.8 1.7 10.5 4.4l-3.5 3.5c-1.8-1.8-4.3-2.9-7-2.9-5.5 0-10 4.5-10 10s4.5 10 10 10c2.7 0 5.2-1.1 7-2.9l3.5 3.5C52.8 28.3 49.1 30 45 30c-8.3 0-15-6.7-15-15z"/>
    <!-- C -->
    <path d="M60 15c0-8.3 6.7-15 15-15 4.1 0 7.8 1.7 10.5 4.4l-3.5 3.5c-1.8-1.8-4.3-2.9-7-2.9-5.5 0-10 4.5-10 10s4.5 10 10 10c2.7 0 5.2-1.1 7-2.9l3.5 3.5C82.8 28.3 79.1 30 75 30c-8.3 0-15-6.7-15-15z"/>
    <!-- O -->
    <path d="M90 15c0-8.3 6.7-15 15-15s15 6.7 15 15-6.7 15-15 15-15-6.7-15-15zm5 0c0 5.5 4.5 10 10 10s10-4.5 10-10-4.5-10-10-10-10 4.5-10 10z"/>
    <!-- R -->
    <path d="M125 0h15c5.5 0 10 4.5 10 10 0 4-2.4 7.5-5.8 9l7.8 11h-6l-7-10h-9v10h-5V0zm5 5v10h10c2.8 0 5-2.2 5-5s-2.2-5-5-5h-10z"/>
  </g>
</svg>
