<svg xmlns="http://www.w3.org/2000/svg" viewBox="0 0 200 40" fill="#ffffff">
  <!-- Centara Hotels & Resorts - clean wordmark -->
  <g transform="translate(5, 8)">
    <!-- C -->
    <path d="M0 12c0-6.6 5.4-12 12-12 3.3 0 6.3 1.3 8.5 3.5l-2.8 2.8C16.2 4.8 14.2 4 12 4c-4.4 0-8 3.6-8 8s3.6 8 8 8c2.2 0 4.2-.8 5.7-2.3l2.8 2.8c-2.2 2.2-5.2 3.5-8.5 3.5-6.6 0-12-5.4-12-12z"/>
    <!-- E -->
    <path d="M25 0h14v4H29v6h8v4h-8v6h10v4H25V0z"/>
    <!-- N -->
    <path d="M44 0h4l10 16V0h4v24h-4L48 8v16h-4V0z"/>
    <!-- T -->
    <path d="M67 0h16v4h-6v20h-4V4h-6V0z"/>
    <!-- A -->
    <path d="M85 24h4l2-5h8l2 5h4L96 0h-4L85 24zm7.5-9l2.5-6h.5l2.5 6h-5.5z"/>
    <!-- R -->
    <path d="M108 0h12c4.4 0 8 3.6 8 8 0 3.2-1.9 6-4.6 7.2L130 24h-5l-6-8h-7v8h-4V0zm4 4v8h8c2.2 0 4-1.8 4-4s-1.8-4-4-4h-8z"/>
    <!-- A -->
    <path d="M133 24h4l2-5h8l2 5h4l-9-24h-4l-9 24zm7.5-9l2.5-6h.5l2.5 6h-5.5z"/>
  </g>
  <!-- Subtitle -->
  <text x="100" y="36" font-family="Arial, sans-serif" font-size="5" text-anchor="middle" letter-spacing="1.5">HOTELS &amp; RESORTS</text>
</svg>
