<svg xmlns="http://www.w3.org/2000/svg" viewBox="0 0 180 60" fill="#ffffff">
  <!-- Marriott wave line -->
  <path d="M90 55c26.226 0 51.656-1.194 75.857-3.39v.965c-24.197 3.812-49.639 6.683-75.857 6.683-26.223 0-51.662-2.871-75.859-6.683v-.965C38.342 53.806 63.77 55 90 55z"/>
  <!-- HOTELS & RESORTS text simplified -->
  <g transform="translate(0, 38)">
    <text x="90" y="8" font-family="Arial, sans-serif" font-size="6" text-anchor="middle" letter-spacing="2">HOTELS &amp; RESORTS</text>
  </g>
  <!-- Marriott main text -->
  <g transform="translate(10, 5)">
    <path d="M23.819 17.551c-.7 0-1.496-.16-2.047-.28l-3.51 5.756c.922.877 3.159 1.426 4.432 1.426 3.86 0 6.402-3.803 11.159-14.562L39.54 22.01h7.594l-3.575-8.158 2.014-4.253 5.59 12.411h7.286L45.743-6.048l-5.853 2.929 4.579 10.411-2.005 4.091-8.413-18.14-6.158 3.15 5.1 10.92-1.977 4.045c-1.353 2.775-4.259 6.193-7.197 6.193z"/>
    <path d="M72.671 15.99V4.683c0-1.645-.387-3.018-1.148-3.945-.707-.867-1.835-1.858-4.834-1.858-2.215 0-3.997.4-5.442 1.073-.603.28-1.033.838-1.371 1.646-.383.911-.678 2.158-.889 3.552 2.041-1.887 3.984-2.857 5.318-3.057 1.731-.258 2.911.099 2.911 1.006 0 .666-.496 1.066-1.274 1.455-1.13.565-3.548 1.226-5.476 2.373-1.734 1.032-3.25 2.68-3.11 6.083.147 3.523 2.631 5.84 4.841 5.848 2.279.007 3.642-1.091 5.158-2.409.16.727.52 1.643 1.094 2.183h5.229c-.576-.783-1.007-1.667-1.007-2.643zm-6.493-1.388c-.802.59-1.407.728-2.047.709-1.21-.034-1.871-1.249-1.871-2.885 0-.992.307-2.213.731-2.981.759-1.363 1.902-2.315 3.024-2.371.698-.036.988.264 1.089 1.169.063.588.083 1.12.083 2.423.001 2.624-.094 3.261-1.009 3.936z"/>
    <path d="M99.029-.92c1.486 0 2.553.666 3.117 1.399l-2.293 3.552c-1.111-.836-2.607-1.13-3.902-.088V14.34c-.008 1.803.297 3.428 1.234 4.292h-5.211c-1.096-.825-1.508-2.264-1.508-3.327V1.472c0-1.134-.246-1.607-.693-2.248h5.408c.293.254.57.861.674 1.288.874-.786 1.918-1.432 3.174-1.432z"/>
    <path d="M109.693 3.168V14.34c-.008 1.803.301 3.428 1.236 4.292h-5.211c-1.098-.825-1.506-2.264-1.506-3.327V1.472c0-1.134-.25-1.607-.695-2.248h5.311c.68.958.865 2.07.865 3.944z"/>
    <path d="M85.432-.92c1.487 0 2.553.666 3.117 1.399l-2.294 3.552c-1.108-.836-2.608-1.13-3.901-.088V14.34c-.011 1.803.296 3.428 1.234 4.292h-5.21c-1.094-.825-1.505-2.264-1.505-3.327V1.472c0-1.134-.247-1.607-.694-2.248h5.407c.29.254.569.861.672 1.288.872-.786 1.916-1.432 3.174-1.432z"/>
    <path d="M128.014 3.497c-.799-1.359-2.316-3.033-4.523-4.208-1.48-.79-2.35-.768-5.57.753-.908.427-2.914 1.56-3.805 2.976-.314.499-.545 1.469-.656 2.649-.193 2.032-.146 4.562-.018 6.396.303 4.322 4.594 6.31 6.166 6.817 2.75.89 5.924-2.03 6.742-2.845 1.557-1.542 2.211-2.568 2.41-4.382.1-.913.111-1.957.096-3.277-.026-1.685-.225-3.823-.842-4.879zm-5.416 11.327c-.426.775-.912 1.13-1.576 1.123-.67-.007-1.398-.741-1.836-2.156-.496-1.64-.439-5.971-.365-7.112.107-1.719.229-2.935.795-3.932.283-.506.949-1.256 1.91-.949.932.298 1.83 1.688 2.008 5.771.195 4.486-.423 6.327-.936 7.255z"/>
    <path d="M137.971.749V14.34c-.014 1.803.293 3.428 1.232 4.292h-5.309c-1.096-.825-1.506-2.264-1.506-3.327V.749h-3.064l.674-1.806h2.391v-4.045l5.582-2.081v6.126h2.701l-.684 1.806h-2.017z"/>
    <path d="M149.805.749V14.34c-.008 1.803.299 3.428 1.234 4.292h-5.305c-1.098-.825-1.508-2.264-1.508-3.327V.749h-3.062l.674-1.806h2.389v-4.045l5.578-2.081v6.126h2.707l-.686 1.806h-2.021z"/>
  </g>
</svg>
